<svg xmlns="http://www.w3.org/2000/svg" xmlns:xlink="http://www.w3.org/1999/xlink" width="770" height="770" viewBox="0 0 770 770">
  <defs>
    <clipPath id="clip-partly-rainy">
      <rect width="770" height="770"/>
    </clipPath>
  </defs>
  <g id="partly-rainy" clip-path="url(#clip-partly-rainy)">
    <g id="rainy-outline" transform="translate(83.668 167.541)">
      <path id="Path_1" data-name="Path 1" d="M114.61,162.85A16.07,16.07,0,0,0,128,149.6C140.09,76.17,193.63,32,256,32c57.93,0,96.62,37.75,112.2,77.74a15.84,15.84,0,0,0,12.2,9.87c50,8.15,91.6,41.54,91.6,99.59C472,278.6,423.4,320,364,320H130c-49.5,0-90-24.7-90-79.2C40,192.33,78.67,168.58,114.61,162.85Z" fill="none" stroke="#000" stroke-linejoin="round" stroke-width="32"/>
      <path id="Path_2" data-name="Path 2" d="M144,384l-32,48m112-48-64,96m144-96-32,48m112-48-64,96" fill="none" stroke="#000" stroke-linecap="round" stroke-linejoin="round" stroke-width="32"/>
    </g>
    <g id="sunny-outline_1_" data-name="sunny-outline (1)" transform="translate(444.168 74.459)">
      <path id="Path_3" data-name="Path 3" d="M125.082,48V65.788m0,118.587v17.788M179.587,70.576,167.01,83.154M83.154,167.01,70.576,179.588m131.588-54.506H184.375m-118.587,0H48m131.587,54.506L167.01,167.01M83.154,83.154,70.576,70.576" fill="none" stroke="#000" stroke-linecap="round" stroke-miterlimit="10" stroke-width="22"/>
      <circle id="Ellipse_1" data-name="Ellipse 1" cx="30" cy="30" r="30" transform="translate(95.082 95.082)" fill="none" stroke="#000" stroke-linecap="round" stroke-miterlimit="10" stroke-width="22"/>
    </g>
  </g>
</svg>
