<?xml version="1.0" standalone="no"?>
<!DOCTYPE svg PUBLIC "-//W3C//DTD SVG 20010904//EN"
 "http://www.w3.org/TR/2001/REC-SVG-20010904/DTD/svg10.dtd">
<svg version="1.0" xmlns="http://www.w3.org/2000/svg"
 width="288.000000pt" height="288.000000pt" viewBox="0 0 288.000000 288.000000"
 preserveAspectRatio="xMidYMid meet">
<metadata>
Created by potrace 1.11, written by Peter Selinger 2001-2013
</metadata>
<g transform="translate(0.000000,288.000000) scale(0.100000,-0.100000)"
fill="#000000" stroke="none">
<path d="M742 2557 l-222 -222 0 -323 0 -322 -260 0 -260 0 0 -250 0 -250 399
0 399 0 22 -35 22 -35 386 0 387 -1 48 -63 c47 -63 47 -64 47 -140 0 -76 0
-78 -42 -127 l-43 -49 -190 0 -189 0 -43 42 -43 42 0 93 0 93 -337 -2 -338 -3
-3 -220 -2 -219 237 -238 238 -238 476 0 476 0 232 230 231 230 0 320 0 320
255 0 255 0 0 250 0 250 -409 0 -409 0 -25 30 -26 30 -369 0 -370 0 -41 49
-41 49 0 100 0 99 38 27 c38 26 40 26 218 26 l180 0 47 -48 47 -48 0 -87 0
-87 325 0 325 0 0 248 0 247 -228 228 -227 227 -475 0 -475 0 -223 -223z
m1370 -24 l218 -218 0 -222 0 -223 -290 0 -290 0 0 78 -1 77 -52 58 -53 57
-194 0 -193 0 -54 -40 -53 -41 0 -110 0 -110 48 -59 47 -59 371 0 c318 -1 373
-3 384 -16 11 -13 -36 -15 -416 -15 l-428 0 -53 52 -53 52 0 141 0 140 81 83
80 82 232 0 232 0 87 -87 c86 -86 88 -89 88 -135 l0 -48 210 0 210 0 0 137 0
138 -202 202 -203 203 -423 0 -423 0 -199 -197 -200 -197 0 -283 0 -283 -35 0
-35 0 0 312 0 313 217 217 218 218 455 0 455 0 217 -217z m738 -1098 l0 -215
-1410 0 -1410 0 0 215 0 215 1410 0 1410 0 0 -215z m-1068 -312 l68 -67 0
-131 0 -130 -82 -82 -83 -83 -250 0 -250 0 -72 72 -73 72 0 58 0 58 -215 0
-215 0 0 -138 0 -138 202 -202 201 -202 426 0 425 0 203 202 203 203 0 287 0
288 35 0 35 0 0 -307 0 -308 -227 -227 -228 -228 -455 0 -455 0 -227 227 -228
228 0 197 0 198 305 0 305 0 0 -82 0 -82 47 -48 47 -48 212 0 212 0 46 52 46
53 0 98 0 98 -56 74 -56 75 -383 0 c-328 0 -384 2 -395 15 -11 13 37 15 426
15 l438 0 68 -67z"/>
<path d="M102 1604 c-19 -13 -22 -24 -22 -87 0 -40 4 -79 10 -87 5 -8 31 -17
62 -20 51 -5 53 -6 56 -37 3 -28 0 -33 -17 -33 -12 0 -21 7 -21 15 0 11 -12
15 -45 15 l-45 0 0 -55 0 -55 88 0 c123 0 132 8 132 109 0 94 -12 111 -83 111
-46 0 -47 1 -47 30 0 23 4 30 20 30 11 0 20 -7 20 -15 0 -11 11 -15 40 -15
l40 0 0 55 0 55 -83 0 c-59 0 -89 -5 -105 -16z"/>
<path d="M362 1553 l3 -68 30 0 c25 0 30 4 33 28 5 40 22 33 23 -10 2 -89 -3
-159 -12 -168 -5 -5 -9 -24 -9 -42 l0 -34 68 3 67 3 3 38 c2 28 0 37 -12 37
-13 0 -16 16 -16 100 0 80 3 100 14 100 9 0 16 -12 18 -27 3 -24 8 -28 33 -28
l30 0 0 65 0 65 -138 3 -138 3 3 -68z"/>
<path d="M690 1580 c0 -22 5 -40 10 -40 6 0 10 -40 10 -100 0 -60 -4 -100 -10
-100 -5 0 -10 -18 -10 -40 l0 -40 115 0 115 0 0 60 0 60 -40 0 c-33 0 -40 -3
-40 -20 0 -13 -7 -20 -20 -20 -16 0 -20 7 -20 35 0 32 2 35 30 35 28 0 30 3
30 35 0 32 -2 35 -30 35 -27 0 -30 3 -30 30 0 23 4 30 20 30 13 0 20 -7 20
-20 0 -16 7 -20 35 -20 l35 0 0 60 0 60 -110 0 -110 0 0 -40z"/>
<path d="M970 1581 c0 -22 4 -41 10 -43 5 -1 17 -41 25 -88 9 -47 20 -109 26
-137 l10 -53 64 0 63 0 17 98 c26 147 33 176 44 180 6 2 11 21 11 43 l0 39
-65 0 -65 0 0 -40 c0 -22 5 -40 11 -40 7 0 8 -16 3 -47 -15 -104 -20 -102 -39
15 l-18 112 -48 0 -49 0 0 -39z"/>
<path d="M1290 1580 c0 -22 5 -40 10 -40 6 0 10 -40 10 -100 0 -60 -4 -100
-10 -100 -5 0 -10 -18 -10 -40 l0 -40 115 0 115 0 0 60 0 60 -40 0 c-33 0 -40
-3 -40 -20 0 -13 -7 -20 -20 -20 -16 0 -20 7 -20 35 0 32 2 35 30 35 28 0 30
3 30 35 0 32 -2 35 -30 35 -27 0 -30 3 -30 30 0 23 4 30 20 30 13 0 20 -7 20
-20 0 -17 7 -20 40 -20 l41 0 -3 58 -3 57 -112 3 -113 3 0 -41z"/>
<path d="M1580 1580 c0 -22 5 -40 10 -40 6 0 10 -40 10 -100 0 -60 -4 -100
-10 -100 -5 0 -10 -18 -10 -40 l0 -40 50 0 50 0 1 83 1 82 39 -82 39 -83 50 0
50 0 0 40 c0 22 -4 40 -10 40 -6 0 -10 40 -10 100 0 60 4 100 10 100 6 0 10
18 10 41 l0 40 -47 -3 -48 -3 -5 -80 -5 -80 -38 83 -37 82 -50 0 -50 0 0 -40z"/>
<path d="M1947 1602 c-13 -14 -17 -38 -17 -90 0 -87 12 -102 81 -102 l49 0 0
-35 c0 -28 -4 -35 -20 -35 -11 0 -20 7 -20 15 0 11 -12 15 -45 15 l-45 0 0
-55 0 -55 90 0 c119 0 130 10 130 114 0 66 -3 77 -22 90 -12 9 -42 16 -65 16
-41 0 -43 1 -43 30 0 23 4 30 20 30 11 0 20 -7 20 -15 0 -11 11 -15 40 -15
l40 0 0 55 0 55 -88 0 c-73 0 -92 -3 -105 -18z"/>
<path d="M2252 1612 c-22 -14 -32 -73 -32 -184 0 -155 9 -168 121 -168 41 0
63 5 80 19 23 19 24 24 24 159 0 176 -4 182 -109 182 -39 0 -77 -4 -84 -8z
m108 -172 l0 -100 -25 0 c-25 0 -25 0 -25 93 0 52 3 97 7 100 3 4 15 7 25 7
16 0 18 -10 18 -100z"/>
<path d="M2510 1581 c0 -23 5 -41 10 -41 6 0 10 -40 10 -100 0 -60 -4 -100
-10 -100 -5 0 -10 -18 -10 -40 l0 -40 50 0 50 0 0 88 0 87 42 -87 41 -88 54 0
53 0 0 40 c0 22 -4 40 -10 40 -6 0 -10 40 -10 100 0 60 4 100 10 100 6 0 10
18 10 40 l0 40 -50 0 -49 0 -3 -87 -3 -88 -32 70 c-49 104 -45 100 -102 103
l-51 3 0 -40z"/>
</g>
</svg>
